<svg xmlns="http://www.w3.org/2000/svg" width="64" height="64" fill="none"><rect width="64" height="64" fill="#37352C" rx="32"/><path fill="#fff" d="M20.18 12.476a.28.28 0 0 1 .418.334l-3.44 8.969c-.224.586.14 1.233.758 1.344l.795.143a.325.325 0 0 1-.057.645h-7.342a.3.3 0 0 1-.038-.599l1.525-.191a2.832 2.832 0 0 0 2.292-1.801l1.883-4.939a1.086 1.086 0 0 0-1.014-1.473h-1.156a.292.292 0 0 1-.044-.58c2.92-.467 3.98-.906 5.42-1.852ZM25.802 12.478a.289.289 0 0 0 .284.34h7.1a.208.208 0 0 1 .154.347c-4.088 4.593-4.796 5.554-10.116 14.053-.384.597-.789.874-1.344.874-.49 0-.896-.384-.896-1.088 0-.576.235-.917 1.451-2.389l5.004-6.018c1.276-1.534.185-3.86-1.81-3.86-.56 0-1.103.2-1.53.565l-1.093.934a.285.285 0 0 1-.417-.384l2.585-3.586a.345.345 0 0 1 .373-.13l.049.014c.143.04.232.182.206.328ZM37.526 32.545a.65.65 0 0 1-.602.404H25.558a.65.65 0 1 1 0-1.302h11.366a.65.65 0 0 1 .602.898ZM42.93 40.032a.28.28 0 0 0-.418.334l3.44 8.968a1.002 1.002 0 0 1-.757 1.345l-.795.143a.325.325 0 0 0 .057.645H51.8a.3.3 0 0 0 .038-.6l-1.524-.19a2.832 2.832 0 0 1-2.293-1.801l-1.883-4.94a1.086 1.086 0 0 1 1.014-1.472h1.156a.292.292 0 0 0 .044-.581c-2.92-.467-3.98-.905-5.42-1.851ZM37.309 40.034a.289.289 0 0 1-.284.34h-7.1a.208.208 0 0 0-.154.347c4.088 4.593 4.796 5.554 10.116 14.052.384.598.79.875 1.344.875.49 0 .896-.384.896-1.088 0-.576-.235-.917-1.45-2.39l-5.005-6.017c-1.275-1.534-.184-3.86 1.81-3.86.56 0 1.103.2 1.53.564l1.094.935a.285.285 0 0 0 .416-.384l-2.585-3.586a.345.345 0 0 0-.373-.13l-.049.013a.289.289 0 0 0-.206.329Z"/></svg>